<svg xmlns="http://www.w3.org/2000/svg" width="95.65" height="38.6" viewBox="0 0 95.65 38.6">
  <path id="Контур_1" data-name="Контур 1" d="M-92-10.3a26.2,26.2,0,0,1,1.675-9.4,23.073,23.073,0,0,1,4.4-7.4,20.655,20.655,0,0,1,6.25-4.725,16.316,16.316,0,0,1,7.25-1.725,8.635,8.635,0,0,1,5.95,1.975,7.158,7.158,0,0,1,2.225,5.65,8.853,8.853,0,0,1-2.825,6.475A13.694,13.694,0,0,1-74.35-15.8q-.8.1-1.05.1-1.85,0-1.85-1.45a1.306,1.306,0,0,1,.525-1,6.966,6.966,0,0,1,2.375-.95,10.362,10.362,0,0,0,4.575-2.5,5.354,5.354,0,0,0,1.725-3.925,3.849,3.849,0,0,0-1.275-3.225,5.577,5.577,0,0,0-3.525-1q-5.45,0-9.925,5.625A20.609,20.609,0,0,0-87.25-10.9q0,5.7,2.3,8.775A7.8,7.8,0,0,0-78.3.95a14.214,14.214,0,0,0,7.875-2.275A19.208,19.208,0,0,0-64.6-7.2a.814.814,0,0,1,.775-.35,1.966,1.966,0,0,1,1.175.45q.6.45.6.8a1.247,1.247,0,0,1-.1.55A17.3,17.3,0,0,1-69.1,1.875,19.315,19.315,0,0,1-79.275,4.75,12.072,12.072,0,0,1-88.35.95Q-92-2.85-92-10.3Zm27.8,5.1a11.561,11.561,0,0,1,3.225-8.025Q-57.75-16.75-54.1-16.75q2.05,0,2.05,1.05v.3h1.15q1.4,0,1.4,1.3v.3l-1.4,8.6a2.373,2.373,0,0,0-.05.55q0,1.2.85,1.2,1.9,0,4.5-3.35a.944.944,0,0,1,.7-.45q.5,0,.85.775a3.372,3.372,0,0,1,.35,1.35,2.921,2.921,0,0,1-.1.875,12.872,12.872,0,0,1-3,2.925A6.123,6.123,0,0,1-50.325,0a3.635,3.635,0,0,1-2.6-.875A3.849,3.849,0,0,1-54.05-3.25v.1A6.555,6.555,0,0,1-56.3-.65a6.41,6.41,0,0,1-3.45.9,3.935,3.935,0,0,1-3.225-1.525A6.072,6.072,0,0,1-64.2-5.2Zm5.65,1.95a3.4,3.4,0,0,0,2.575-1.5A8.384,8.384,0,0,0-54.3-8.05l1.35-5.6a6.7,6.7,0,0,0-5.2,2.75,8.317,8.317,0,0,0-2.3,5.2Q-60.45-3.25-58.55-3.25Zm12.35-.3q0-1.05.1-2.15a70.26,70.26,0,0,1,3.35-17.65,22.258,22.258,0,0,1,4.025-7.525A7.277,7.277,0,0,1-33.15-33.85a3.754,3.754,0,0,1,2.85,1.1,4.025,4.025,0,0,1,1.05,2.9v.35a17.6,17.6,0,0,1-3.075,7.35,55.6,55.6,0,0,1-9.075,9.8l-.9,5a22.371,22.371,0,0,1,5.575-6.725Q-33.6-16.5-32.25-16.5a3.383,3.383,0,0,1,2.1.575A1.587,1.587,0,0,1-29.4-14.7a4.221,4.221,0,0,1-.25,1.375Q-29.9-12.6-31.45-9A15.469,15.469,0,0,0-33-3.8q0,.5.575.5A7.364,7.364,0,0,0-29.9-4.45a28.673,28.673,0,0,0,3.6-2.5,1.2,1.2,0,0,1,.625-.15q.375,0,.75.6a2.833,2.833,0,0,1,.375,1.525,1.986,1.986,0,0,1-1,1.625Q-30.6.05-34.45.05A2.376,2.376,0,0,1-36.125-.7,3.3,3.3,0,0,1-36.9-3.15,14.135,14.135,0,0,1-35.7-7.9q1.2-3.05,1.2-3.25t-.15-.2a1.709,1.709,0,0,0-.8.4,20.581,20.581,0,0,0-3.9,3.975A16.57,16.57,0,0,0-42-2.625a8.2,8.2,0,0,1-1,2.2A1.75,1.75,0,0,1-44.4.05a1.415,1.415,0,0,1-1.4-.925A7,7,0,0,1-46.2-3.55ZM-34.3-29.8q-2.3,0-4.75,6.65a40.575,40.575,0,0,0-1.9,7,46.417,46.417,0,0,0,5.35-6.775q2.35-3.625,2.35-5.825A.928.928,0,0,0-34.3-29.8Zm6.6,23.35a11.1,11.1,0,0,1,2.425-6.875A7.2,7.2,0,0,1-19.4-16.5,5.06,5.06,0,0,1-16-15.35a3.863,3.863,0,0,1,1.35,3.1A5.32,5.32,0,0,1-16.9-7.8a17.274,17.274,0,0,1-6.8,2.65Q-23-3-20.1-3a10.812,10.812,0,0,0,7.55-3.4.853.853,0,0,1,.625-.2,1.159,1.159,0,0,1,.8.35,1.12,1.12,0,0,1,.375.85,1.735,1.735,0,0,1-.35,1,11.549,11.549,0,0,1-3.95,3.225A11.578,11.578,0,0,1-20.675.3,7.469,7.469,0,0,1-25.65-1.425,6.2,6.2,0,0,1-27.7-6.45Zm8.375-6.8a4.131,4.131,0,0,0-3.125,1.875,6.326,6.326,0,0,0-1.5,4.025q6.25-2.15,6.25-4.5Q-17.7-13.25-19.325-13.25Zm6.025,6.8a11.1,11.1,0,0,1,2.425-6.875A7.2,7.2,0,0,1-5-16.5a5.06,5.06,0,0,1,3.4,1.15,3.863,3.863,0,0,1,1.35,3.1A5.32,5.32,0,0,1-2.5-7.8,17.274,17.274,0,0,1-9.3-5.15Q-8.6-3-5.7-3A10.812,10.812,0,0,0,1.85-6.4a.853.853,0,0,1,.625-.2,1.159,1.159,0,0,1,.8.35,1.12,1.12,0,0,1,.375.85,1.735,1.735,0,0,1-.35,1A11.549,11.549,0,0,1-.65-1.175,11.578,11.578,0,0,1-6.275.3,7.469,7.469,0,0,1-11.25-1.425,6.2,6.2,0,0,1-13.3-6.45Zm8.375-6.8A4.131,4.131,0,0,0-8.05-11.375,6.326,6.326,0,0,0-9.55-7.35Q-3.3-9.5-3.3-11.85-3.3-13.25-4.925-13.25Z" transform="translate(92 33.85)" fill="#fff"/>
</svg>
